<svg width="300" height="200" viewBox="0 0 300 200" fill="none" xmlns="http://www.w3.org/2000/svg">
<rect width="300" height="200" fill="rgba(245,245,245,0)"/>
<rect x="0.5" y="0.5" width="299" height="199" fill="white"/>
<circle cx="82.5" cy="93.5" r="33.5" stroke="#2770B3" stroke-width="8"/>
<rect x="36" y="52" width="49" height="81" fill="white"/>
<path d="M85 141C111.51 141 133 119.51 133 93C133 66.4903 111.51 45 85 45C58.4903 45 37 66.4903 37 93C37 119.51 58.4903 141 85 141Z" stroke="url(#paint0_linear_0_1)" stroke-width="6"/>
<rect x="55" y="40" width="30" height="110" fill="white"/>
<path d="M118.577 93C109.037 93 221 93 221 93V120H118.577C118.577 106.996 128.116 93 118.577 93Z" fill="white"/>
<path d="M84.582 115.077C84.582 115.813 84.5439 116.436 84.4678 116.943C84.417 117.426 84.3281 117.819 84.2012 118.124C84.0742 118.429 83.9092 118.657 83.7061 118.81C83.5283 118.937 83.3252 119 83.0967 119H58.3408C57.5029 119 56.792 118.759 56.208 118.276C55.6494 117.769 55.3701 116.956 55.3701 115.839V72.8779C55.3701 71.7607 55.6494 70.9609 56.208 70.4785C56.792 69.9707 57.5029 69.7168 58.3408 69.7168H82.9443C83.1729 69.7168 83.376 69.7803 83.5537 69.9072C83.7314 70.0342 83.8838 70.2627 84.0107 70.5928C84.1377 70.8975 84.2266 71.3037 84.2773 71.8115C84.3535 72.2939 84.3916 72.916 84.3916 73.6777C84.3916 74.3887 84.3535 74.998 84.2773 75.5059C84.2266 75.9883 84.1377 76.3818 84.0107 76.6865C83.8838 76.9912 83.7314 77.2197 83.5537 77.3721C83.376 77.499 83.1729 77.5625 82.9443 77.5625H65.3486V89.5977H80.2402C80.4688 89.5977 80.6719 89.6738 80.8496 89.8262C81.0527 89.9531 81.2178 90.1689 81.3447 90.4736C81.4717 90.7529 81.5605 91.1465 81.6113 91.6543C81.6875 92.1367 81.7256 92.7334 81.7256 93.4443C81.7256 94.1807 81.6875 94.79 81.6113 95.2725C81.5605 95.7549 81.4717 96.1484 81.3447 96.4531C81.2178 96.7324 81.0527 96.9355 80.8496 97.0625C80.6719 97.1895 80.4688 97.2529 80.2402 97.2529H65.3486V111.154H83.0967C83.3252 111.154 83.5283 111.23 83.7061 111.383C83.9092 111.51 84.0742 111.726 84.2012 112.03C84.3281 112.335 84.417 112.741 84.4678 113.249C84.5439 113.731 84.582 114.341 84.582 115.077Z" fill="#0273B3"/>
<circle cx="85" cy="45" r="3" fill="#1541DC"/>
<circle cx="56" cy="130" r="6" fill="#D9D9D9"/>
<circle cx="56" cy="55" r="6" fill="#D9D9D9"/>
<circle cx="85" cy="141" r="3" fill="#1541DC"/>
<rect x="121" y="120" width="68" height="6" fill="#0273B3"/>
<circle cx="188" cy="123" r="6" fill="#D9D9D9"/>
<rect x="130" y="104" width="78" height="6" fill="#0273B3"/>
<circle cx="207" cy="107" r="6" fill="#D9D9D9"/>
<path d="M142 62H220V68H142V62Z" fill="#0273B3"/>
<circle cx="144" cy="65" r="6" fill="#D9D9D9"/>
<circle cx="216" cy="65" r="6" fill="#D9D9D9"/>
<path d="M171 78H227V84H171V78Z" fill="#0273B3"/>
<circle cx="227" cy="81" r="6" fill="#D9D9D9"/>
<path d="M161.086 91.2744L170.692 78.4791L175.49 82.0815L165.884 94.8767L161.086 91.2744Z" fill="#0273B3"/>
<rect x="130" y="89" width="36" height="6" fill="#0273B3"/>
<circle cx="85" cy="127" r="4" fill="#2770B3"/>
<circle cx="85" cy="60" r="4" fill="#03659f"/>
<rect x="0.5" y="0.5" width="299" height="199" stroke="black"/>
<defs>
<linearGradient id="paint0_linear_0_1" x1="40" y1="100" x2="130" y2="99" gradientUnits="userSpaceOnUse">
<stop offset="0.442708" stop-color="#1541DC"/>
<stop offset="1" stop-color="#2770B3" stop-opacity="0.81"/>
</linearGradient>
</defs>
</svg>
